<svg data-v-423bf9ae="" xmlns="http://www.w3.org/2000/svg" viewBox="0 0 182.57371373715375 163" class="iconAbove"><!----><!----><!----><g data-v-423bf9ae="" id="d7639e68-8eb6-4b0b-b2f2-ed01ee8f6100" fill="black" transform="matrix(2.680964946746826,0,0,2.680964946746826,1.8766807317733765,91.6595230102539)"><path d="M4.24 7.06L4.24 7.06L4.24 7.06Q4.45 7.06 4.69 7.07L4.69 7.07L4.69 7.07Q4.93 7.08 5.08 7.15L5.08 7.15L5.08 7.15Q4.93 7.36 4.79 7.69L4.79 7.69L4.79 7.69Q4.65 8.01 4.54 8.30L4.54 8.30L4.54 8.30Q4.40 8.67 4.28 9.03L4.28 9.03L4.28 9.03Q4.19 8.97 4.03 8.92L4.03 8.92L4.03 8.92Q3.91 8.88 3.72 8.83L3.72 8.83L3.72 8.83Q3.53 8.79 3.26 8.79L3.26 8.79L3.26 8.79Q2.84 8.79 2.57 9.02L2.57 9.02L2.57 9.02Q2.30 9.25 2.13 9.63L2.13 9.63L2.13 9.63Q1.96 10.00 1.87 10.44L1.87 10.44L1.87 10.44Q1.78 10.89 1.74 11.31L1.74 11.31L1.74 11.31Q1.74 12.12 1.76 12.57L1.76 12.57L1.76 12.57Q1.78 13.02 1.78 13.30L1.78 13.30L1.78 13.30Q1.60 13.34 1.38 13.42L1.38 13.42L1.38 13.42Q1.16 13.50 0.94 13.60L0.94 13.60L0.94 13.60Q0.71 13.71 0.50 13.81L0.50 13.81L0.50 13.81Q0.28 13.92 0.11 14.01L0.11 14.01L0.11 14.01Q0.18 13.38 0.23 12.71L0.23 12.71L0.23 12.71Q0.28 12.04 0.30 11.40L0.30 11.40L0.30 11.40Q0.32 10.75 0.30 10.17L0.30 10.17L0.30 10.17Q0.28 9.59 0.22 9.15L0.22 9.15L0.22 9.15Q0.15 8.71 0.06 8.43L0.06 8.43L0.06 8.43Q-0.04 8.16-0.18 8.13L-0.18 8.13L-0.18 8.13Q-0.25 8.12-0.34 8.12L-0.34 8.12L-0.34 8.12Q-0.42 8.12-0.50 8.12L-0.50 8.12L-0.50 8.12Q-0.60 8.12-0.70 8.13L-0.70 8.13L-0.70 8.13Q-0.32 8.01 0.06 7.84L0.06 7.84L0.06 7.84Q0.38 7.69 0.77 7.48L0.77 7.48L0.77 7.48Q1.16 7.28 1.53 7.01L1.53 7.01L1.53 7.01Q1.57 7.20 1.60 7.51L1.60 7.51L1.60 7.51Q1.62 7.83 1.65 8.22L1.65 8.22L1.65 8.22Q1.68 8.62 1.69 9.07L1.69 9.07L1.69 9.07Q1.71 9.52 1.74 9.95L1.74 9.95L1.74 9.95Q1.95 9.48 2.23 8.97L2.23 8.97L2.23 8.97Q2.51 8.46 2.83 8.03L2.83 8.03L2.83 8.03Q3.15 7.60 3.51 7.33L3.51 7.33L3.51 7.33Q3.88 7.06 4.24 7.06ZM8.04 5.24L8.04 5.24L8.04 5.24Q7.85 5.38 7.67 5.53L7.67 5.53L7.67 5.53Q7.52 5.67 7.33 5.85L7.33 5.85L7.33 5.85Q7.14 6.03 6.99 6.23L6.99 6.23L6.99 6.23Q6.83 5.98 6.66 5.80L6.66 5.80L6.66 5.80Q6.50 5.61 6.34 5.49L6.34 5.49L6.34 5.49Q6.17 5.33 6.01 5.24L6.01 5.24L6.01 5.24Q6.19 5.10 6.36 4.94L6.36 4.94L6.36 4.94Q6.51 4.80 6.68 4.62L6.68 4.62L6.68 4.62Q6.85 4.44 6.99 4.23L6.99 4.23L6.99 4.23Q7.14 4.47 7.32 4.65L7.32 4.65L7.32 4.65Q7.50 4.84 7.66 4.97L7.66 4.97L7.66 4.97Q7.84 5.12 8.04 5.24ZM5.78 8.12L5.78 8.12L5.78 8.12Q6.12 7.98 6.42 7.88L6.42 7.88L6.42 7.88Q6.72 7.77 6.99 7.65L6.99 7.65L6.99 7.65Q7.27 7.53 7.53 7.38L7.53 7.38L7.53 7.38Q7.78 7.24 8.04 7.01L8.04 7.01L8.04 7.01Q8.15 7.39 8.13 7.93L8.13 7.93L8.13 7.93Q8.12 8.47 8.07 9.06L8.07 9.06L8.07 9.06Q8.02 9.66 8.01 10.26L8.01 10.26L8.01 10.26Q7.99 10.86 8.11 11.35L8.11 11.35L8.11 11.35Q8.23 11.84 8.53 12.17L8.53 12.17L8.53 12.17Q8.83 12.50 9.44 12.56L9.44 12.56L9.44 12.56Q8.83 12.95 8.41 13.30L8.41 13.30L8.41 13.30Q7.98 13.65 7.56 14.01L7.56 14.01L7.56 14.01Q7.43 13.96 7.28 13.89L7.28 13.89L7.28 13.89Q7.13 13.82 6.99 13.69L6.99 13.69L6.99 13.69Q6.85 13.55 6.74 13.35L6.74 13.35L6.74 13.35Q6.64 13.15 6.62 12.82L6.62 12.82L6.62 12.82Q6.64 11.87 6.66 11.01L6.66 11.01L6.66 11.01Q6.69 10.15 6.64 9.50L6.64 9.50L6.64 9.50Q6.58 8.85 6.39 8.48L6.39 8.48L6.39 8.48Q6.20 8.11 5.78 8.12ZM14.56 7.01L14.56 7.01L14.56 7.01Q15.01 6.99 15.53 7.17L15.53 7.17L15.53 7.17Q16.04 7.36 16.48 7.73L16.48 7.73L16.48 7.73Q16.93 8.11 17.21 8.64L17.21 8.64L17.21 8.64Q17.50 9.17 17.50 9.83L17.50 9.83L17.50 9.83Q17.50 10.58 17.09 11.27L17.09 11.27L17.09 11.27Q16.67 11.96 15.98 12.52L15.98 12.52L15.98 12.52Q15.29 13.08 14.40 13.47L14.40 13.47L14.40 13.47Q13.51 13.87 12.54 14.06L12.54 14.06L12.54 14.06Q12.54 14.07 12.52 14.62L12.52 14.62L12.52 14.62Q12.49 15.18 12.43 16.06L12.43 16.06L12.43 16.06Q12.38 16.94 12.31 18.07L12.31 18.07L12.31 18.07Q12.25 19.19 12.18 20.37L12.18 20.37L12.18 20.37Q12.03 23.13 11.83 26.61L11.83 26.61L11.83 26.61Q11.65 23.94 11.51 21.53L11.51 21.53L11.51 21.53Q11.45 20.51 11.40 19.43L11.40 19.43L11.40 19.43Q11.34 18.35 11.30 17.35L11.30 17.35L11.30 17.35Q11.26 16.34 11.23 15.47L11.23 15.47L11.23 15.47Q11.20 14.60 11.20 13.99L11.20 13.99L11.20 11.19L11.20 11.19Q11.20 10.35 11.12 9.82L11.12 9.82L11.12 9.82Q11.05 9.30 10.93 8.99L10.93 8.99L10.93 8.99Q10.82 8.68 10.70 8.53L10.70 8.53L10.70 8.53Q10.57 8.39 10.47 8.30L10.47 8.30L10.47 8.30Q10.35 8.19 10.17 8.15L10.17 8.15L10.17 8.15Q10.00 8.11 9.83 8.11L9.83 8.11L9.83 8.11Q9.63 8.11 9.44 8.16L9.44 8.16L9.44 8.16Q9.83 8.02 10.21 7.84L10.21 7.84L10.21 7.84Q10.53 7.69 10.88 7.48L10.88 7.48L10.88 7.48Q11.23 7.27 11.51 7.01L11.51 7.01L11.51 7.01Q12.08 7.01 12.32 7.67L12.32 7.67L12.32 7.67Q12.46 7.91 12.46 8.69L12.46 8.69L12.46 8.69Q12.67 8.51 12.94 8.29L12.94 8.29L12.94 8.29Q13.20 8.06 13.48 7.83L13.48 7.83L13.48 7.83Q13.76 7.60 14.04 7.38L14.04 7.38L14.04 7.38Q14.31 7.17 14.56 7.01ZM12.54 13.83L12.54 13.83L12.54 13.83Q13.15 13.71 13.75 13.43L13.75 13.43L13.75 13.43Q14.35 13.16 14.83 12.74L14.83 12.74L14.83 12.74Q15.32 12.32 15.62 11.75L15.62 11.75L15.62 11.75Q15.92 11.19 15.92 10.46L15.92 10.46L15.92 10.46Q15.92 9.91 15.63 9.52L15.63 9.52L15.63 9.52Q15.34 9.13 14.95 8.88L14.95 8.88L14.95 8.88Q14.55 8.62 14.13 8.50L14.13 8.50L14.13 8.50Q13.71 8.39 13.44 8.39L13.44 8.39L13.44 8.39Q13.13 8.39 12.90 8.58L12.90 8.58L12.90 8.58Q12.67 8.78 12.54 9.02L12.54 9.02L12.54 9.02Q12.57 9.44 12.58 9.97L12.58 9.97L12.58 9.97Q12.59 10.50 12.58 11.12L12.58 11.12L12.58 11.12Q12.57 11.73 12.56 12.42L12.56 12.42L12.56 12.42Q12.54 13.10 12.54 13.83ZM20.10 5.73L20.10 5.73L20.10 5.73Q20.55 5.54 21 5.26L21 5.26L21 5.26Q21.45 4.98 21.95 4.66L21.95 4.66L21.95 4.66Q21.88 4.91 21.83 5.28L21.83 5.28L21.83 5.28Q21.77 5.64 21.73 6.01L21.73 6.01L21.73 6.01Q21.69 6.38 21.66 6.69L21.66 6.69L21.66 6.69Q21.63 7 21.63 7.14L21.63 7.14L21.63 7.14Q22.19 7.29 22.77 7.27L22.77 7.27L22.77 7.27Q23.35 7.24 23.72 7.24L23.72 7.24L23.72 7.24Q23.53 7.41 23.26 7.52L23.26 7.52L23.26 7.52Q22.99 7.64 22.69 7.74L22.69 7.74L22.69 7.74Q22.40 7.84 22.11 7.91L22.11 7.91L22.11 7.91Q21.83 7.98 21.62 8.04L21.62 8.04L21.62 8.04Q21.64 8.55 21.61 9.09L21.61 9.09L21.61 9.09Q21.57 9.62 21.57 10.12L21.57 10.12L21.57 10.12Q21.57 10.61 21.66 11.05L21.66 11.05L21.66 11.05Q21.74 11.49 22.00 11.83L22.00 11.83L22.00 11.83Q22.26 12.17 22.74 12.38L22.74 12.38L22.74 12.38Q23.23 12.60 24.04 12.64L24.04 12.64L24.04 12.64Q23.80 12.84 23.56 13.08L23.56 13.08L23.56 13.08Q23.32 13.31 23.07 13.52L23.07 13.52L23.07 13.52Q22.82 13.72 22.55 13.85L22.55 13.85L22.55 13.85Q22.29 13.99 22.01 13.99L22.01 13.99L22.01 13.99Q21.73 13.99 21.44 13.88L21.44 13.88L21.44 13.88Q21.15 13.78 20.92 13.56L20.92 13.56L20.92 13.56Q20.69 13.34 20.53 13.01L20.53 13.01L20.53 13.01Q20.37 12.68 20.36 12.24L20.36 12.24L20.36 12.24Q20.30 11.12 20.27 10.01L20.27 10.01L20.27 10.01Q20.24 8.90 20.24 8.01L20.24 8.01L20.24 8.01Q19.88 7.98 19.63 7.95L19.63 7.95L19.63 7.95Q19.39 7.91 19.22 7.88L19.22 7.88L19.22 7.88Q19.03 7.85 18.90 7.83L18.90 7.83L18.90 7.83Q19.10 7.74 19.32 7.64L19.32 7.64L19.32 7.64Q19.50 7.56 19.73 7.45L19.73 7.45L19.73 7.45Q19.95 7.34 20.16 7.18L20.16 7.18L20.16 7.18Q20.20 6.75 20.20 6.40L20.20 6.40L20.20 6.40Q20.19 6.05 20.10 5.73ZM26.39 9.66L26.39 9.66L26.39 9.66Q26.39 10.08 26.55 10.59L26.55 10.59L26.55 10.59Q26.71 11.10 27.09 11.54L27.09 11.54L27.09 11.54Q27.47 11.98 28.08 12.29L28.08 12.29L28.08 12.29Q28.69 12.59 29.57 12.59L29.57 12.59L29.57 12.59Q30.03 12.59 30.30 12.46L30.30 12.46L30.30 12.46Q30.56 12.33 30.69 12.14L30.69 12.14L30.69 12.14Q30.81 11.96 30.85 11.75L30.85 11.75L30.85 11.75Q30.88 11.54 30.88 11.35L30.88 11.35L30.88 11.35Q30.88 10.75 30.65 10.16L30.65 10.16L30.65 10.16Q30.42 9.58 30.02 9.11L30.02 9.11L30.02 9.11Q29.61 8.65 29.06 8.37L29.06 8.37L29.06 8.37Q28.50 8.09 27.86 8.09L27.86 8.09L27.86 8.09Q27.44 8.09 27.16 8.25L27.16 8.25L27.16 8.25Q26.88 8.41 26.70 8.66L26.70 8.66L26.70 8.66Q26.53 8.90 26.46 9.18L26.46 9.18L26.46 9.18Q26.39 9.45 26.39 9.66ZM29.47 7L29.47 7L29.47 7Q29.89 7 30.37 7.18L30.37 7.18L30.37 7.18Q30.86 7.36 31.27 7.73L31.27 7.73L31.27 7.73Q31.68 8.09 31.95 8.66L31.95 8.66L31.95 8.66Q32.21 9.23 32.21 9.98L32.21 9.98L32.21 9.98Q32.21 10.42 32.01 10.88L32.01 10.88L32.01 10.88Q31.81 11.34 31.48 11.79L31.48 11.79L31.48 11.79Q31.15 12.24 30.72 12.63L30.72 12.63L30.72 12.63Q30.30 13.03 29.84 13.34L29.84 13.34L29.84 13.34Q29.39 13.64 28.93 13.82L28.93 13.82L28.93 13.82Q28.48 14 28.10 14L28.10 14L28.10 14Q27.52 14 27.00 13.76L27.00 13.76L27.00 13.76Q26.47 13.52 26.07 13.12L26.07 13.12L26.07 13.12Q25.66 12.71 25.42 12.19L25.42 12.19L25.42 12.19Q25.17 11.66 25.17 11.07L25.17 11.07L25.17 11.07Q25.17 10.28 25.61 9.54L25.61 9.54L25.61 9.54Q26.04 8.81 26.68 8.24L26.68 8.24L26.68 8.24Q27.33 7.67 28.08 7.34L28.08 7.34L28.08 7.34Q28.83 7 29.47 7ZM37.86 7.06L37.86 7.06L37.86 7.06Q38.07 7.06 38.30 7.07L38.30 7.07L38.30 7.07Q38.54 7.08 38.70 7.15L38.70 7.15L38.70 7.15Q38.54 7.36 38.40 7.69L38.40 7.69L38.40 7.69Q38.26 8.01 38.15 8.30L38.15 8.30L38.15 8.30Q38.01 8.67 37.90 9.03L37.90 9.03L37.90 9.03Q37.80 8.97 37.65 8.92L37.65 8.92L37.65 8.92Q37.52 8.88 37.33 8.83L37.33 8.83L37.33 8.83Q37.14 8.79 36.88 8.79L36.88 8.79L36.88 8.79Q36.46 8.79 36.18 9.02L36.18 9.02L36.18 9.02Q35.91 9.25 35.74 9.63L35.74 9.63L35.74 9.63Q35.57 10.00 35.48 10.44L35.48 10.44L35.48 10.44Q35.39 10.89 35.35 11.31L35.35 11.31L35.35 11.31Q35.35 12.12 35.37 12.57L35.37 12.57L35.37 12.57Q35.39 13.02 35.39 13.30L35.39 13.30L35.39 13.30Q35.21 13.34 34.99 13.42L34.99 13.42L34.99 13.42Q34.78 13.50 34.55 13.60L34.55 13.60L34.55 13.60Q34.33 13.71 34.11 13.81L34.11 13.81L34.11 13.81Q33.89 13.92 33.73 14.01L33.73 14.01L33.73 14.01Q33.80 13.38 33.84 12.71L33.84 12.71L33.84 12.71Q33.89 12.04 33.91 11.40L33.91 11.40L33.91 11.40Q33.94 10.75 33.91 10.17L33.91 10.17L33.91 10.17Q33.89 9.59 33.83 9.15L33.83 9.15L33.83 9.15Q33.77 8.71 33.67 8.43L33.67 8.43L33.67 8.43Q33.57 8.16 33.43 8.13L33.43 8.13L33.43 8.13Q33.36 8.12 33.28 8.12L33.28 8.12L33.28 8.12Q33.19 8.12 33.11 8.12L33.11 8.12L33.11 8.12Q33.01 8.12 32.91 8.13L32.91 8.13L32.91 8.13Q33.29 8.01 33.67 7.84L33.67 7.84L33.67 7.84Q33.99 7.69 34.38 7.48L34.38 7.48L34.38 7.48Q34.78 7.28 35.14 7.01L35.14 7.01L35.14 7.01Q35.18 7.20 35.21 7.51L35.21 7.51L35.21 7.51Q35.24 7.83 35.27 8.22L35.27 8.22L35.27 8.22Q35.29 8.62 35.31 9.07L35.31 9.07L35.31 9.07Q35.32 9.52 35.35 9.95L35.35 9.95L35.35 9.95Q35.56 9.48 35.84 8.97L35.84 8.97L35.84 8.97Q36.12 8.46 36.44 8.03L36.44 8.03L36.44 8.03Q36.76 7.60 37.13 7.33L37.13 7.33L37.13 7.33Q37.49 7.06 37.86 7.06ZM43.64 7.06L43.64 7.06L43.64 7.06Q43.85 7.06 44.09 7.07L44.09 7.07L44.09 7.07Q44.32 7.08 44.48 7.15L44.48 7.15L44.48 7.15Q44.32 7.36 44.18 7.69L44.18 7.69L44.18 7.69Q44.04 8.01 43.93 8.30L43.93 8.30L43.93 8.30Q43.79 8.67 43.68 9.03L43.68 9.03L43.68 9.03Q43.58 8.97 43.43 8.92L43.43 8.92L43.43 8.92Q43.30 8.88 43.11 8.83L43.11 8.83L43.11 8.83Q42.92 8.79 42.66 8.79L42.66 8.79L42.66 8.79Q42.24 8.79 41.97 9.02L41.97 9.02L41.97 9.02Q41.69 9.25 41.52 9.63L41.52 9.63L41.52 9.63Q41.36 10.00 41.27 10.44L41.27 10.44L41.27 10.44Q41.17 10.89 41.13 11.31L41.13 11.31L41.13 11.31Q41.13 12.12 41.15 12.57L41.15 12.57L41.15 12.57Q41.17 13.02 41.17 13.30L41.17 13.30L41.17 13.30Q40.99 13.34 40.77 13.42L40.77 13.42L40.77 13.42Q40.56 13.50 40.33 13.60L40.33 13.60L40.33 13.60Q40.11 13.71 39.89 13.81L39.89 13.81L39.89 13.81Q39.68 13.92 39.51 14.01L39.51 14.01L39.51 14.01Q39.58 13.38 39.63 12.71L39.63 12.71L39.63 12.71Q39.68 12.04 39.70 11.40L39.70 11.40L39.70 11.40Q39.72 10.75 39.70 10.17L39.70 10.17L39.70 10.17Q39.68 9.59 39.61 9.15L39.61 9.15L39.61 9.15Q39.55 8.71 39.45 8.43L39.45 8.43L39.45 8.43Q39.35 8.16 39.21 8.13L39.21 8.13L39.21 8.13Q39.14 8.12 39.06 8.12L39.06 8.12L39.06 8.12Q38.98 8.12 38.89 8.12L38.89 8.12L38.89 8.12Q38.79 8.12 38.70 8.13L38.70 8.13L38.70 8.13Q39.07 8.01 39.45 7.84L39.45 7.84L39.45 7.84Q39.77 7.69 40.17 7.48L40.17 7.48L40.17 7.48Q40.56 7.28 40.92 7.01L40.92 7.01L40.92 7.01Q40.96 7.20 40.99 7.51L40.99 7.51L40.99 7.51Q41.02 7.83 41.05 8.22L41.05 8.22L41.05 8.22Q41.08 8.62 41.09 9.07L41.09 9.07L41.09 9.07Q41.10 9.52 41.13 9.95L41.13 9.95L41.13 9.95Q41.34 9.48 41.62 8.97L41.62 8.97L41.62 8.97Q41.90 8.46 42.22 8.03L42.22 8.03L42.22 8.03Q42.55 7.60 42.91 7.33L42.91 7.33L42.91 7.33Q43.27 7.06 43.64 7.06ZM50.09 12.49L50.09 12.49L50.09 12.49Q50.50 12.49 50.85 12.38L50.85 12.38L50.85 12.38Q51.21 12.28 51.48 12.14L51.48 12.14L51.48 12.14Q51.79 11.98 52.05 11.79L52.05 11.79L52.05 11.79Q51.67 12.42 51.14 12.91L51.14 12.91L51.14 12.91Q50.69 13.33 50.02 13.67L50.02 13.67L50.02 13.67Q49.34 14.01 48.44 14.01L48.44 14.01L48.44 14.01Q47.80 14.01 47.21 13.79L47.21 13.79L47.21 13.79Q46.62 13.57 46.16 13.15L46.16 13.15L46.16 13.15Q45.71 12.73 45.44 12.12L45.44 12.12L45.44 12.12Q45.18 11.51 45.18 10.75L45.18 10.75L45.18 10.75Q45.18 10.07 45.39 9.54L45.39 9.54L45.39 9.54Q45.61 9.02 45.96 8.62L45.96 8.62L45.96 8.62Q46.31 8.23 46.75 7.97L46.75 7.97L46.75 7.97Q47.18 7.71 47.60 7.55L47.60 7.55L47.60 7.55Q48.94 7 49.43 7L49.43 7L49.43 7Q49.95 7 50.34 7.17L50.34 7.17L50.34 7.17Q50.72 7.35 51.00 7.56L51.00 7.56L51.00 7.56Q51.31 7.81 51.55 8.12L51.55 8.12L46.93 9.98L46.93 9.98Q47.03 10.57 47.21 11.03L47.21 11.03L47.21 11.03Q47.39 11.49 47.74 11.82L47.74 11.82L47.74 11.82Q48.09 12.14 48.65 12.31L48.65 12.31L48.65 12.31Q49.21 12.49 50.09 12.49ZM47.82 7.81L47.82 7.81L47.82 7.81Q47.63 7.81 47.45 7.92L47.45 7.92L47.45 7.92Q47.26 8.02 47.12 8.19L47.12 8.19L47.12 8.19Q46.97 8.36 46.89 8.57L46.89 8.57L46.89 8.57Q46.82 8.78 46.83 8.99L46.83 8.99L46.83 8.99Q46.83 9.21 46.84 9.42L46.84 9.42L46.84 9.42Q46.84 9.63 46.89 9.84L46.89 9.84L49.24 8.76L49.24 8.76Q49.10 8.50 48.89 8.29L48.89 8.29L48.89 8.29Q48.71 8.11 48.44 7.96L48.44 7.96L48.44 7.96Q48.17 7.81 47.82 7.81ZM60.86 10.01L60.86 10.01L60.86 10.01Q60.86 11.00 60.53 11.75L60.53 11.75L60.53 11.75Q60.20 12.50 59.81 13.01L59.81 13.01L59.81 13.01Q59.35 13.59 58.76 14.01L58.76 14.01L58.76 14.01Q58.98 13.66 59.16 13.24L59.16 13.24L59.16 13.24Q59.32 12.88 59.44 12.42L59.44 12.42L59.44 12.42Q59.57 11.96 59.57 11.44L59.57 11.44L59.57 11.44Q59.57 10.81 59.32 10.22L59.32 10.22L59.32 10.22Q59.07 9.63 58.65 9.18L58.65 9.18L58.65 9.18Q58.23 8.72 57.67 8.44L57.67 8.44L57.67 8.44Q57.12 8.16 56.52 8.16L56.52 8.16L56.52 8.16Q56.22 8.16 55.94 8.23L55.94 8.23L55.94 8.23Q55.66 8.30 55.48 8.48L55.48 8.48L55.48 8.48Q55.48 8.78 55.46 9.27L55.46 9.27L55.46 9.27Q55.44 9.77 55.44 10.42L55.44 10.42L55.44 10.42Q55.44 11.06 55.48 11.82L55.48 11.82L55.48 11.82Q55.51 12.57 55.64 13.38L55.64 13.38L55.64 13.38Q55.15 13.38 54.66 13.58L54.66 13.58L54.66 13.58Q54.18 13.78 53.89 14.01L53.89 14.01L53.89 14.01Q53.90 13.75 53.93 13.24L53.93 13.24L53.93 13.24Q53.96 12.73 53.97 12.10L53.97 12.10L53.97 12.10Q53.98 11.48 53.98 10.82L53.98 10.82L53.98 10.82Q53.97 10.16 53.91 9.61L53.91 9.61L53.91 9.61Q53.86 9.06 53.75 8.68L53.75 8.68L53.75 8.68Q53.65 8.30 53.47 8.25L53.47 8.25L53.47 8.25Q53.23 8.15 52.99 8.15L52.99 8.15L52.99 8.15Q52.86 8.15 52.75 8.16L52.75 8.16L52.75 8.16Q53.23 7.85 53.66 7.60L53.66 7.60L53.66 7.60Q54.03 7.39 54.40 7.22L54.40 7.22L54.40 7.22Q54.78 7.04 54.99 7.04L54.99 7.04L54.99 7.04Q55.17 7.04 55.27 7.07L55.27 7.07L55.27 7.07Q55.37 7.10 55.42 7.21L55.42 7.21L55.42 7.21Q55.47 7.32 55.48 7.55L55.48 7.55L55.48 7.55Q55.48 7.77 55.48 8.16L55.48 8.16L55.48 8.16Q56.08 7.62 56.76 7.33L56.76 7.33L56.76 7.33Q57.44 7.04 58.04 7.04L58.04 7.04L58.04 7.04Q58.67 7.04 59.19 7.29L59.19 7.29L59.19 7.29Q59.71 7.55 60.08 7.96L60.08 7.96L60.08 7.96Q60.45 8.37 60.66 8.90L60.66 8.90L60.66 8.90Q60.86 9.44 60.86 10.01ZM63.46 5.73L63.46 5.73L63.46 5.73Q63.91 5.54 64.36 5.26L64.36 5.26L64.36 5.26Q64.81 4.98 65.31 4.66L65.31 4.66L65.31 4.66Q65.24 4.91 65.18 5.28L65.18 5.28L65.18 5.28Q65.13 5.64 65.09 6.01L65.09 6.01L65.09 6.01Q65.04 6.38 65.02 6.69L65.02 6.69L65.02 6.69Q64.99 7 64.99 7.14L64.99 7.14L64.99 7.14Q65.55 7.29 66.13 7.27L66.13 7.27L66.13 7.27Q66.71 7.24 67.07 7.24L67.07 7.24L67.07 7.24Q66.89 7.41 66.62 7.52L66.62 7.52L66.62 7.52Q66.35 7.64 66.05 7.74L66.05 7.74L66.05 7.74Q65.76 7.84 65.47 7.91L65.47 7.91L65.47 7.91Q65.18 7.98 64.97 8.04L64.97 8.04L64.97 8.04Q65.00 8.55 64.97 9.09L64.97 9.09L64.97 9.09Q64.93 9.62 64.93 10.12L64.93 10.12L64.93 10.12Q64.93 10.61 65.02 11.05L65.02 11.05L65.02 11.05Q65.10 11.49 65.36 11.83L65.36 11.83L65.36 11.83Q65.62 12.17 66.10 12.38L66.10 12.38L66.10 12.38Q66.58 12.60 67.40 12.64L67.40 12.64L67.40 12.64Q67.16 12.84 66.92 13.08L66.92 13.08L66.92 13.08Q66.68 13.31 66.43 13.52L66.43 13.52L66.43 13.52Q66.18 13.72 65.91 13.85L65.91 13.85L65.91 13.85Q65.65 13.99 65.37 13.99L65.37 13.99L65.37 13.99Q65.09 13.99 64.80 13.88L64.80 13.88L64.80 13.88Q64.51 13.78 64.28 13.56L64.28 13.56L64.28 13.56Q64.05 13.34 63.89 13.01L63.89 13.01L63.89 13.01Q63.73 12.68 63.71 12.24L63.71 12.24L63.71 12.24Q63.66 11.12 63.63 10.01L63.63 10.01L63.63 10.01Q63.60 8.90 63.60 8.01L63.60 8.01L63.60 8.01Q63.24 7.98 62.99 7.95L62.99 7.95L62.99 7.95Q62.75 7.91 62.58 7.88L62.58 7.88L62.58 7.88Q62.38 7.85 62.26 7.83L62.26 7.83L62.26 7.83Q62.45 7.74 62.68 7.64L62.68 7.64L62.68 7.64Q62.86 7.56 63.08 7.45L63.08 7.45L63.08 7.45Q63.31 7.34 63.52 7.18L63.52 7.18L63.52 7.18Q63.56 6.75 63.55 6.40L63.55 6.40L63.55 6.40Q63.55 6.05 63.46 5.73Z"></path></g><!----><g data-v-423bf9ae="" id="193f71e0-b124-432c-b296-5c6cbb8a709c" transform="matrix(1.4159270524978638,0,0,1.4159270524978638,19.7169189453125,-24.252687454223633)" stroke="none" fill="black"><path d="M28.7 72.5s-1.5 2.9.5 4.6c2.1 1.8 7 .3 4.6-3.1-2.2-3.4-5.1-1.5-5.1-1.5zM33.5 63.5c.3-1 .2-1.8-1.6-1.1s-1.2 2.2-1.2 2.2c1.3.7 2.5-.1 2.8-1.1zM23.8 61.8c-1.3 3.8 4.7 5.2 5 4.9 1.3-1.4-3.7-8.7-5-4.9zM71.5 69.2c3.2 2.4 6.4-2.8 6.2-3.2-1-1.7-9.5.8-6.2 3.2zM68.9 54.9c-7.1.8-5 11.6-4.2 11.8 3.4 1.1 11.3-12.6 4.2-11.8zM27.9 79.1z"></path><path d="M84.1 81s-3.6-.2-5.1-1.1c0 0-.8 1-2.8.4-1.9-.5-1.5-1.3-2.5-3.5 0 0 0 2.9-2.6 3-2.6.1-9.4-1.4-9.8-4.3-.2-1.4-1-1.8-1.7-1.9l-2.3-14.8c0 1.3-.4 2.4-1 3.3 0-1.5.1-2.7.1-3.9-.1-3.4 2-4.9 3.5-6 1.5-1.1.1-2.4 1.4-3.7s.8-3.6 1.4-4.1c.7-.5 1.6-1.9 2.1-3.8s.5-3.3 1.4-4.5c.9-1.1-.2-7.1-1.9-5.1-1.5 1.8-3.5 3.2-3.5 5.7-.1 2-1.6 4.4-3.7 5.7-2.1 1.3-.2-6.2 0-7.7.2-1.4.6-5.5.8-7.1.2-1.7-.2-2.7-.4-4.4-.2-1.7.4-4.3-1.4-5.5s-3.5 2-3.3 3.8c.2 1.8 1 5.3.4 8.5s-.2 5.1-1.6 6.1-1.2-2.4-1.7-4.9c-.5-2.5-.8-3.3-.5-4.4.3-1.1 0-2.7.5-4 .5-1.4-.8-4.3-2.6-4.3s-1.8 3.9-2.4 5c-.6 1.1-.8 3.4 0 4.6.8 1.2.4 3.7.8 5.8.4 2.1.9 3.7.2 3.4-.7-.3-.8-3.6-1.4-4.8-.6-1.2-.2-2.4-.5-3.8-.2-1.4-1.1-3.8-.9-5.3.2-1.5.2-2.9-1.1-3.7-1.3-.8-2.6.8-2.8 2.4-.2 1.6 0 2.1.2 4.3s-.6 3.1 0 5.5 2.7 6.5 2.7 6.5-2.1-.5-2.8-2.4c-.7-1.9-.9-4.2-1.9-5.3-1-1.1-.5-3.3-1.1-5.4-.6-2.1-3.2-.6-3.4 1.7-.2 2.4.8 3.2.9 5 .1 1.8 1.3 2.4 2.5 4s.3 1.1 1.3 3.2 1.4 3 1.9 6.8.9 5.3 2.1 6.3c1.1 1 1.6 2.6 1.2 3.8-.4 1.2-2.5 1.5-1.9 3.3.6 1.7 1.7 3.5 1.9 6.8.1 1.5-.3 4-.7 6.1-.8-1.6-1.1-3.7-1.1-3.7l-1.9 10c-.1.1-3.4 1.7-7 1.3-3.5-.4-3.7-.8-3.7-.8 0 .1.1 1.4-10.4 1.9h66.1zM52.5 47.9s1.7-1.1 3 .9c1.4 2-1.5 2.9-2.7 1.8-1.2-1-.3-2.7-.3-2.7zm-3.9-6.3c2-1.4 1.9 4 .7 4.3-.2 0-2.7-2.9-.7-4.3z"></path></g><!----></svg>